<svg width="134" height="40" viewBox="0 0 134 40" fill="none" xmlns="http://www.w3.org/2000/svg">
<g clip-path="url(#clip0_1320_5740)">
<path d="M33.1884 28.5273V28.8996H33.5426V29.271H33.8967V29.6433H34.2509V30.0155H33.8967V30.388H33.5426V30.7602H33.1884V31.1325H32.4801V30.761H32.8343V30.3887H33.1884V30.0162H33.5426V29.644H33.1884V29.271H32.8343V28.8996H32.4801V28.5273H33.1884Z" fill="#E8344E"/>
<path d="M32.0551 28.5605H31.4382V28.9195H31.0897V29.2853H30.7592V29.6447H30.4107V30.0101H30.0807V30.3694H29.7322V30.7352H29.4021V31.1006H30.019V30.7352H30.3491V30.3759H30.698V30.0101H31.0277V29.6511H31.3765V29.2853H31.7063V28.926H32.0551V28.5605Z" fill="#E8344E"/>
<path d="M25.6048 31.1332V30.761H25.2507V30.3887H24.8965V30.0162H24.5424V29.644H24.8965V29.271H25.2507V28.8996H25.6048V28.5273H26.3131V28.8996H25.959V29.271H25.6048V29.6433H25.2507V30.0155H25.6048V30.388H25.959V30.7602H26.3131V31.1324L25.6048 31.1332Z" fill="#E8344E"/>
<path d="M34.5728 10.4463L2.39479 16.7753L-0.000732422 24.6542L5.41823 30.9189L26.7332 26.7285L27.9224 31.2518L33.3357 25.4304L37.5959 24.5927L39.9914 16.711L34.5728 10.4463Z" fill="#E8344E"/>
<path d="M4.33415 22.8969V22.1654H3.66125V21.4338H5.08178L5.1172 22.1654H6.98715V20.7008H4.33415V19.9707H3.69667V18.5061H4.33415V17.7764H7.8095V18.5079H8.44698V19.2395H7.02681V18.5079H5.11861V19.9725H7.81021V20.7022H8.44769V22.1668H7.81021V22.8983L4.33415 22.8969Z" fill="white"/>
<path d="M15.1625 22.8969V19.2395H15.6611V18.5079H16.3864V17.7764H18.5624V18.5079H19.2873V19.2395H19.7863V22.8969H18.5624V21.4324H16.3864V22.8969H15.1625ZM16.3864 20.7022H18.5624V19.2377H17.8371V18.5079H17.1118V19.2395H16.3864V20.7022Z" fill="white"/>
<path d="M31.9053 22.8969V19.2395H32.4046V18.5079H33.1296V17.7764H35.3052V18.5079H36.0305V19.2395H36.5292V22.8969H35.3052V21.4324H33.1292V22.8969H31.9053ZM33.1292 20.7022H35.3052V19.2377H34.5799V18.5079H33.8567V19.2395H33.1292V20.7022Z" fill="white"/>
<path d="M28.2302 22.8969V18.5079H26.7027V17.7764H31.0546V18.5079H29.5671V22.8969H28.2302Z" fill="white"/>
<path d="M13.6697 18.5079V17.7764H10.2461V18.5144H9.72937V22.8969H10.8768V20.6908H13.6697V19.9593H14.1103V18.5079H13.6697ZM12.9827 19.9593H10.8768V18.5079H12.9809L12.9827 19.9593Z" fill="white"/>
<path d="M25.2089 22.1654V21.4338H24.4836V20.5879H25.1661V19.9539H25.7076V18.5079H25.2089V17.7764H21.7169V18.5144H21.1953V22.8969H22.382V20.7026H23.2175V21.5202H23.8327V22.1596H24.4893L24.4847 22.8969H25.9349V22.1654H25.2089ZM22.382 19.9714V18.5069H24.4847V19.2388L24.4893 19.9703L22.382 19.9714Z" fill="white"/>
</g>
<path d="M56.6532 13.6634V19.1456H55.5432V13.7332H53.1044V28.3116H55.5432V21.939H56.6532V28.5735H59.1232V13.6634H56.6532ZM48.6489 25.2737V13.9776H46.0695V27.8752H49.1336C50.2592 27.8752 51.6818 27.718 52.4791 27.3514V24.7674C51.6662 25.0992 50.4155 25.2737 49.3681 25.2737H48.6489Z" fill="#141617"/>
<path d="M73.6296 13.6634H70.9876V20.9613H73.6296V13.6634ZM65.0938 13.6808C62.4674 13.6808 60.7947 15.1474 60.7947 17.2949C60.7947 19.4598 62.4674 20.9089 65.0938 20.9089C67.7202 20.9089 69.393 19.4598 69.393 17.2949C69.393 15.1474 67.7202 13.6808 65.0938 13.6808ZM65.0938 16.0029C66.11 16.0029 66.7822 16.5092 66.7822 17.2949C66.7822 18.0806 66.11 18.5869 65.0938 18.5869C64.0777 18.5869 63.4054 18.0806 63.4054 17.2949C63.4054 16.5092 64.0777 16.0029 65.0938 16.0029ZM73.6296 21.4851H61.8265V23.5278H71.0188V24.1214H61.8577V28.5735H73.7703V26.5308H64.4685V25.9372H73.6296V21.4851Z" fill="#141617"/>
<path d="M86.4163 13.6634V19.1456H85.3063V13.7332H82.8675V28.3116H85.3063V21.939H86.4163V28.5735H88.8863V13.6634H86.4163ZM79.4907 18.4123H78.2401V14.0126H75.8325V27.8752H81.8982V14.0126H79.4907V18.4123ZM78.2401 25.2214V21.0486H79.4907V25.2214H78.2401Z" fill="#141617"/>
<path d="M97.2331 19.4948C100.751 19.4948 103.33 18.6043 103.33 16.4568C103.33 14.3094 100.751 13.4189 97.2331 13.4189C93.7157 13.4189 91.1362 14.3094 91.1362 16.4568C91.1362 18.6043 93.7157 19.4948 97.2331 19.4948ZM97.2331 15.6363C99.2342 15.6363 100.516 15.8982 100.516 16.4568C100.516 17.033 99.2342 17.2774 97.2331 17.2774C95.2321 17.2774 93.9502 17.033 93.9502 16.4568C93.9502 15.8982 95.2321 15.6363 97.2331 15.6363ZM103.987 22.2533V19.9836H90.4796V22.2533H95.9199V23.0739H91.2612V28.5735H103.205V23.0739H98.5463V22.2533H103.987ZM100.594 26.3562H93.872V25.2912H100.594V26.3562Z" fill="#141617"/>
<path d="M116.179 13.6634V16.3172H115.069V13.7332H112.631V22.0263H115.069V19.0408H116.179V22.1835H118.649V13.6634H116.179ZM111.661 16.7537V13.838H105.517V16.0204H109.223V16.8584H105.517V18.971H108.613C108.05 19.6344 107.065 19.9487 105.517 19.9836V22.1835C109.097 22.1835 111.661 20.228 111.661 16.7537ZM106.362 28.5735H118.649V22.7072H106.362V28.5735ZM108.972 25.0642H116.039V26.2165H108.972V25.0642Z" fill="#141617"/>
<path d="M133.14 20.5947H131.108V16.7362H132.999V14.0126H120.993V16.7362H122.885V20.5947H120.852V23.3009H133.14V20.5947ZM125.542 16.7362H128.45V20.5947H125.542V16.7362ZM120.243 25.2912V28.0498H133.75V25.2912H120.243Z" fill="#141617"/>
<defs>
<clipPath id="clip0_1320_5740">
<rect width="40.1249" height="20.8055" fill="white" transform="translate(-0.000732422 10.4463)"/>
</clipPath>
</defs>
</svg>
